<svg xmlns="http://www.w3.org/2000/svg" width="840" height="200" viewBox="0 0 840 200">
  <defs>
    <linearGradient id="commitGrad" x1="0" y1="0" x2="0" y2="1">
      <stop offset="0%" stop-color="#8B5CF6" stop-opacity="0.4"/>
      <stop offset="100%" stop-color="#8B5CF6" stop-opacity="0.02"/>
    </linearGradient>
    <linearGradient id="lineGradPurple" x1="0%" y1="0%" x2="100%" y2="0%">
      <stop offset="0%" stop-color="#8B5CF6"/>
      <stop offset="100%" stop-color="#A78BFA"/>
    </linearGradient>
    <linearGradient id="lineGradCyan" x1="0%" y1="0%" x2="100%" y2="0%">
      <stop offset="0%" stop-color="#3B82F6"/>
      <stop offset="100%" stop-color="#06B6D4"/>
    </linearGradient>
    <filter id="softGlow">
      <feGaussianBlur stdDeviation="1.5" result="blur"/>
      <feMerge><feMergeNode in="blur"/><feMergeNode in="SourceGraphic"/></feMerge>
    </filter>
  </defs>

  <style>
    .title { font: 600 13px 'Segoe UI', system-ui, sans-serif; fill: #E6EDF3; }
    .axis-label { font: 400 9px 'Segoe UI', system-ui, sans-serif; fill: #484F58; }
    .legend-text { font: 400 10px 'Segoe UI', system-ui, sans-serif; fill: #8B949E; }
  </style>

  <rect width="840" height="200" rx="10" fill="#0D1117" stroke="#30363D" stroke-width="1"/>
  <text x="15" y="22" class="title">📈 Activity (Last 30 Days)</text>

  <!-- Legend -->
  <circle cx="670" cy="18" r="4" fill="#8B5CF6"/>
  <text x="678" y="22" class="legend-text">Commits</text>
  <circle cx="740" cy="18" r="4" fill="#06B6D4"/>
  <text x="748" y="22" class="legend-text">PRs Merged</text>

  <!-- Grid lines -->
  <line x1="50" y1="40" x2="820" y2="40" stroke="#30363D" stroke-width="0.5" stroke-dasharray="4,4"/>
  <text x="42" y="43" class="axis-label" text-anchor="end">14</text>
  <line x1="50" y1="71.25" x2="820" y2="71.25" stroke="#30363D" stroke-width="0.5" stroke-dasharray="4,4"/>
  <text x="42" y="74.25" class="axis-label" text-anchor="end">11</text>
  <line x1="50" y1="102.5" x2="820" y2="102.5" stroke="#30363D" stroke-width="0.5" stroke-dasharray="4,4"/>
  <text x="42" y="105.5" class="axis-label" text-anchor="end">7</text>
  <line x1="50" y1="133.75" x2="820" y2="133.75" stroke="#30363D" stroke-width="0.5" stroke-dasharray="4,4"/>
  <text x="42" y="136.75" class="axis-label" text-anchor="end">4</text>
  <line x1="50" y1="165" x2="820" y2="165" stroke="#30363D" stroke-width="0.5" stroke-dasharray="4,4"/>
  <text x="42" y="168" class="axis-label" text-anchor="end">0</text>

  <!-- Area fill -->
  <path d="M50,165L50,147.14285714285714L76.55172413793103,93.57142857142857L103.10344827586206,138.21428571428572L129.6551724137931,40L156.20689655172413,165L182.75862068965517,66.78571428571429L209.31034482758622,129.28571428571428L235.86206896551724,138.21428571428572L262.41379310344826,66.78571428571429L288.9655172413793,102.5L315.51724137931035,129.28571428571428L342.0689655172414,75.71428571428571L368.62068965517244,84.64285714285714L395.1724137931035,147.14285714285714L421.7241379310345,138.21428571428572L448.2758620689655,57.85714285714286L474.82758620689657,93.57142857142857L501.3793103448276,147.14285714285714L527.9310344827586,165L554.4827586206897,66.78571428571429L581.0344827586207,147.14285714285714L607.5862068965517,156.07142857142858L634.1379310344828,66.78571428571429L660.6896551724138,138.21428571428572L687.2413793103449,93.57142857142857L713.7931034482759,120.35714285714286L740.344827586207,138.21428571428572L766.8965517241379,165L793.448275862069,147.14285714285714L820,129.28571428571428L820,165Z" fill="url(#commitGrad)"/>

  <!-- Lines -->
  <path d="M50,147.14285714285714L76.55172413793103,93.57142857142857L103.10344827586206,138.21428571428572L129.6551724137931,40L156.20689655172413,165L182.75862068965517,66.78571428571429L209.31034482758622,129.28571428571428L235.86206896551724,138.21428571428572L262.41379310344826,66.78571428571429L288.9655172413793,102.5L315.51724137931035,129.28571428571428L342.0689655172414,75.71428571428571L368.62068965517244,84.64285714285714L395.1724137931035,147.14285714285714L421.7241379310345,138.21428571428572L448.2758620689655,57.85714285714286L474.82758620689657,93.57142857142857L501.3793103448276,147.14285714285714L527.9310344827586,165L554.4827586206897,66.78571428571429L581.0344827586207,147.14285714285714L607.5862068965517,156.07142857142858L634.1379310344828,66.78571428571429L660.6896551724138,138.21428571428572L687.2413793103449,93.57142857142857L713.7931034482759,120.35714285714286L740.344827586207,138.21428571428572L766.8965517241379,165L793.448275862069,147.14285714285714L820,129.28571428571428" fill="none" stroke="url(#lineGradPurple)" stroke-width="2.5" stroke-linecap="round" stroke-linejoin="round" filter="url(#softGlow)"/>
  <path d="M50,156.07142857142858L76.55172413793103,147.14285714285714L103.10344827586206,165L129.6551724137931,165L156.20689655172413,147.14285714285714L182.75862068965517,138.21428571428572L209.31034482758622,165L235.86206896551724,156.07142857142858L262.41379310344826,138.21428571428572L288.9655172413793,165L315.51724137931035,147.14285714285714L342.0689655172414,165L368.62068965517244,156.07142857142858L395.1724137931035,156.07142857142858L421.7241379310345,165L448.2758620689655,138.21428571428572L474.82758620689657,138.21428571428572L501.3793103448276,147.14285714285714L527.9310344827586,156.07142857142858L554.4827586206897,147.14285714285714L581.0344827586207,165L607.5862068965517,156.07142857142858L634.1379310344828,165L660.6896551724138,156.07142857142858L687.2413793103449,147.14285714285714L713.7931034482759,138.21428571428572L740.344827586207,147.14285714285714L766.8965517241379,165L793.448275862069,156.07142857142858L820,138.21428571428572" fill="none" stroke="url(#lineGradCyan)" stroke-width="2" stroke-linecap="round" stroke-linejoin="round" filter="url(#softGlow)"/>

  <!-- X-axis labels -->
  <text x="50" y="190" class="axis-label" text-anchor="middle">Jan 17</text>
  <text x="182.75862068965517" y="190" class="axis-label" text-anchor="middle">Jan 22</text>
  <text x="315.51724137931035" y="190" class="axis-label" text-anchor="middle">Jan 27</text>
  <text x="448.2758620689655" y="190" class="axis-label" text-anchor="middle">Feb 1</text>
  <text x="581.0344827586207" y="190" class="axis-label" text-anchor="middle">Feb 6</text>
  <text x="713.7931034482759" y="190" class="axis-label" text-anchor="middle">Feb 11</text>

  <!-- Data dots (last point) -->
  <circle cx="820" cy="129.28571428571428" r="4" fill="#8B5CF6" filter="url(#softGlow)"/>
  <circle cx="820" cy="138.21428571428572" r="3.5" fill="#06B6D4" filter="url(#softGlow)"/>
</svg>