<svg width="800" height="265" viewBox="0 0 800 265" xmlns="http://www.w3.org/2000/svg">
    <rect width="800" height="265" fill="#0d1117" rx="8"/>
    <line x1="50" y1="210" x2="780" y2="210" stroke="#30363d" stroke-width="0.5" stroke-dasharray="3,3"/>
      <text x="42" y="214" fill="#484f58" font-size="9" text-anchor="end" font-family="Inter,sans-serif">0</text><line x1="50" y1="162.5" x2="780" y2="162.5" stroke="#30363d" stroke-width="0.5" stroke-dasharray="3,3"/>
      <text x="42" y="166.5" fill="#484f58" font-size="9" text-anchor="end" font-family="Inter,sans-serif">21</text><line x1="50" y1="115" x2="780" y2="115" stroke="#30363d" stroke-width="0.5" stroke-dasharray="3,3"/>
      <text x="42" y="119" fill="#484f58" font-size="9" text-anchor="end" font-family="Inter,sans-serif">42</text><line x1="50" y1="67.5" x2="780" y2="67.5" stroke="#30363d" stroke-width="0.5" stroke-dasharray="3,3"/>
      <text x="42" y="71.5" fill="#484f58" font-size="9" text-anchor="end" font-family="Inter,sans-serif">62</text><line x1="50" y1="20" x2="780" y2="20" stroke="#30363d" stroke-width="0.5" stroke-dasharray="3,3"/>
      <text x="42" y="24" fill="#484f58" font-size="9" text-anchor="end" font-family="Inter,sans-serif">83</text><text x="50" y="240" fill="#484f58" font-size="9" text-anchor="middle" font-family="Inter,sans-serif">Nov 15</text><text x="218.46153846153848" y="240" fill="#484f58" font-size="9" text-anchor="middle" font-family="Inter,sans-serif">Dec 6</text><text x="386.92307692307696" y="240" fill="#484f58" font-size="9" text-anchor="middle" font-family="Inter,sans-serif">Dec 27</text><text x="555.3846153846154" y="240" fill="#484f58" font-size="9" text-anchor="middle" font-family="Inter,sans-serif">Jan 17</text><text x="723.8461538461539" y="240" fill="#484f58" font-size="9" text-anchor="middle" font-family="Inter,sans-serif">Feb 7</text>
    <polyline points="50,86.3855421686747 106.15384615384616,52.04819277108433 162.30769230769232,168.79518072289156 218.46153846153848,116.14457831325302 274.61538461538464,52.04819277108433 330.7692307692308,118.43373493975903 386.92307692307696,127.59036144578313 443.07692307692304,24.578313253012055 499.2307692307693,109.27710843373494 555.3846153846154,20 611.5384615384615,45.18072289156626 667.6923076923077,90.96385542168674 723.8461538461539,42.89156626506025 780,164.2168674698795" fill="none" stroke="#8b5cf6" stroke-width="2.5" stroke-linecap="round" stroke-linejoin="round"/>
    <polyline points="50,189.3975903614458 106.15384615384616,180.24096385542168 162.30769230769232,193.97590361445782 218.46153846153848,189.3975903614458 274.61538461538464,196.26506024096386 330.7692307692308,180.24096385542168 386.92307692307696,193.97590361445782 443.07692307692304,198.55421686746988 499.2307692307693,189.3975903614458 555.3846153846154,189.3975903614458 611.5384615384615,175.66265060240966 667.6923076923077,191.6867469879518 723.8461538461539,184.81927710843374 780,175.66265060240966" fill="none" stroke="#06b6d4" stroke-width="2.5" stroke-linecap="round" stroke-linejoin="round"/>
    <polyline points="50,180.24096385542168 106.15384615384616,203.13253012048193 162.30769230769232,182.53012048192772 218.46153846153848,180.24096385542168 274.61538461538464,175.66265060240966 330.7692307692308,196.26506024096386 386.92307692307696,200.8433734939759 443.07692307692304,175.66265060240966 499.2307692307693,187.10843373493975 555.3846153846154,177.95180722891567 611.5384615384615,168.79518072289156 667.6923076923077,189.3975903614458 723.8461538461539,191.6867469879518 780,200.8433734939759" fill="none" stroke="#10b981" stroke-width="2.5" stroke-linecap="round" stroke-linejoin="round"/>
    <circle cx="50" cy="249" r="4" fill="#8b5cf6"/>
     <text x="60" y="253" fill="#8b949e" font-size="9" font-family="Inter,sans-serif">Commits</text><circle cx="160" cy="249" r="4" fill="#06b6d4"/>
     <text x="170" y="253" fill="#8b949e" font-size="9" font-family="Inter,sans-serif">PRs Merged</text><circle cx="270" cy="249" r="4" fill="#10b981"/>
     <text x="280" y="253" fill="#8b949e" font-size="9" font-family="Inter,sans-serif">Issues Closed</text>
  </svg>