<svg width="800" height="140" viewBox="0 0 800 140" xmlns="http://www.w3.org/2000/svg">
      <rect x="22" y="10" width="180" height="110" rx="10" fill="#161b22" stroke="#30363d" stroke-width="1"/>
      <text x="112" y="40" fill="#8b949e" font-size="10" text-anchor="middle" font-family="Inter,sans-serif" letter-spacing="0.5">DEPLOY FREQ</text>
      <text x="112" y="72" fill="#e6edf3" font-size="22" font-weight="700" text-anchor="middle" font-family="Inter,sans-serif">7.2/wk</text>
      <rect x="87" y="85" width="50" height="20" rx="10" fill="#06b6d4" opacity="0.15"/>
      <text x="112" y="99" fill="#06b6d4" font-size="10" font-weight="600" text-anchor="middle" font-family="Inter,sans-serif">HIGH</text>
      <rect x="214" y="10" width="180" height="110" rx="10" fill="#161b22" stroke="#30363d" stroke-width="1"/>
      <text x="304" y="40" fill="#8b949e" font-size="10" text-anchor="middle" font-family="Inter,sans-serif" letter-spacing="0.5">LEAD TIME</text>
      <text x="304" y="72" fill="#e6edf3" font-size="22" font-weight="700" text-anchor="middle" font-family="Inter,sans-serif">10.6h</text>
      <rect x="279" y="85" width="50" height="20" rx="10" fill="#06b6d4" opacity="0.15"/>
      <text x="304" y="99" fill="#06b6d4" font-size="10" font-weight="600" text-anchor="middle" font-family="Inter,sans-serif">HIGH</text>
      <rect x="406" y="10" width="180" height="110" rx="10" fill="#161b22" stroke="#30363d" stroke-width="1"/>
      <text x="496" y="40" fill="#8b949e" font-size="10" text-anchor="middle" font-family="Inter,sans-serif" letter-spacing="0.5">FAILURE RATE</text>
      <text x="496" y="72" fill="#e6edf3" font-size="22" font-weight="700" text-anchor="middle" font-family="Inter,sans-serif">11.5%</text>
      <rect x="471" y="85" width="50" height="20" rx="10" fill="#f59e0b" opacity="0.15"/>
      <text x="496" y="99" fill="#f59e0b" font-size="10" font-weight="600" text-anchor="middle" font-family="Inter,sans-serif">MEDIUM</text>
      <rect x="598" y="10" width="180" height="110" rx="10" fill="#161b22" stroke="#30363d" stroke-width="1"/>
      <text x="688" y="40" fill="#8b949e" font-size="10" text-anchor="middle" font-family="Inter,sans-serif" letter-spacing="0.5">RECOVERY TIME</text>
      <text x="688" y="72" fill="#e6edf3" font-size="22" font-weight="700" text-anchor="middle" font-family="Inter,sans-serif">7.2h</text>
      <rect x="663" y="85" width="50" height="20" rx="10" fill="#06b6d4" opacity="0.15"/>
      <text x="688" y="99" fill="#06b6d4" font-size="10" font-weight="600" text-anchor="middle" font-family="Inter,sans-serif">HIGH</text></svg>