<svg width="800" height="120" viewBox="0 0 800 120" xmlns="http://www.w3.org/2000/svg">
    <rect width="800" height="120" fill="#0d1117" rx="8"/>
    <clipPath id="barClip"><rect x="50" y="30" width="700" height="24" rx="6"/></clipPath>
    <g clip-path="url(#barClip)"><rect x="50" y="30" width="295.09999999999997" height="24" rx="6" fill="#3178C6"/><rect x="346.09999999999997" y="30" width="153.7" height="24" rx="0" fill="#3572A5"/><rect x="500.79999999999995" y="30" width="108.9" height="24" rx="0" fill="#00ADD8"/><rect x="610.6999999999999" y="30" width="57.800000000000004" height="24" rx="0" fill="#F7DF1E"/><rect x="669.4999999999999" y="30" width="42.4" height="24" rx="0" fill="#563D7C"/><rect x="712.8999999999999" y="30" width="25.599999999999998" height="24" rx="0" fill="#844FBA"/><rect x="739.4999999999999" y="30" width="9.5" height="24" rx="0" fill="#6B7280"/></g>
    
      <circle cx="50" cy="78" r="4" fill="#3178C6"/>
      <text x="60" y="82" fill="#8b949e" font-size="10" font-family="Inter,sans-serif">TypeScript <tspan fill="#484f58" font-family="JetBrains Mono,monospace">42.3%</tspan></text>
      <circle cx="170" cy="78" r="4" fill="#3572A5"/>
      <text x="180" y="82" fill="#8b949e" font-size="10" font-family="Inter,sans-serif">Python <tspan fill="#484f58" font-family="JetBrains Mono,monospace">22.1%</tspan></text>
      <circle cx="290" cy="78" r="4" fill="#00ADD8"/>
      <text x="300" y="82" fill="#8b949e" font-size="10" font-family="Inter,sans-serif">Go <tspan fill="#484f58" font-family="JetBrains Mono,monospace">15.7%</tspan></text>
      <circle cx="410" cy="78" r="4" fill="#F7DF1E"/>
      <text x="420" y="82" fill="#8b949e" font-size="10" font-family="Inter,sans-serif">JavaScript <tspan fill="#484f58" font-family="JetBrains Mono,monospace">8.4%</tspan></text>
      <circle cx="530" cy="78" r="4" fill="#563D7C"/>
      <text x="540" y="82" fill="#8b949e" font-size="10" font-family="Inter,sans-serif">CSS <tspan fill="#484f58" font-family="JetBrains Mono,monospace">6.2%</tspan></text>
      <circle cx="650" cy="78" r="4" fill="#844FBA"/>
      <text x="660" y="82" fill="#8b949e" font-size="10" font-family="Inter,sans-serif">HCL <tspan fill="#484f58" font-family="JetBrains Mono,monospace">3.8%</tspan></text>
  </svg>