<svg width="800" height="140" viewBox="0 0 800 140" xmlns="http://www.w3.org/2000/svg">
      <rect x="26" y="15" width="140" height="100" rx="10" fill="#161b22" stroke="#30363d" stroke-width="1"/>
      <circle cx="96" cy="45" r="3" fill="#8b5cf6"/>
      <text x="96" y="78" fill="#e6edf3" font-size="22" font-weight="700" text-anchor="middle" font-family="Inter,sans-serif">158</text>
      <text x="96" y="100" fill="#8b949e" font-size="9" text-anchor="middle" font-family="Inter,sans-serif">Total PRs</text>
      <rect x="178" y="15" width="140" height="100" rx="10" fill="#161b22" stroke="#30363d" stroke-width="1"/>
      <circle cx="248" cy="45" r="3" fill="#10b981"/>
      <text x="248" y="78" fill="#e6edf3" font-size="22" font-weight="700" text-anchor="middle" font-family="Inter,sans-serif">22</text>
      <text x="248" y="100" fill="#8b949e" font-size="9" text-anchor="middle" font-family="Inter,sans-serif">Merged</text>
      <rect x="330" y="15" width="140" height="100" rx="10" fill="#161b22" stroke="#30363d" stroke-width="1"/>
      <circle cx="400" cy="45" r="3" fill="#06b6d4"/>
      <text x="400" y="78" fill="#e6edf3" font-size="22" font-weight="700" text-anchor="middle" font-family="Inter,sans-serif">2</text>
      <text x="400" y="100" fill="#8b949e" font-size="9" text-anchor="middle" font-family="Inter,sans-serif">Open</text>
      <rect x="482" y="15" width="140" height="100" rx="10" fill="#161b22" stroke="#30363d" stroke-width="1"/>
      <circle cx="552" cy="45" r="3" fill="#f59e0b"/>
      <text x="552" y="78" fill="#e6edf3" font-size="22" font-weight="700" text-anchor="middle" font-family="Inter,sans-serif">4.8h</text>
      <text x="552" y="100" fill="#8b949e" font-size="9" text-anchor="middle" font-family="Inter,sans-serif">Avg Merge Time</text>
      <rect x="634" y="15" width="140" height="100" rx="10" fill="#161b22" stroke="#30363d" stroke-width="1"/>
      <circle cx="704" cy="45" r="3" fill="#f97316"/>
      <text x="704" y="78" fill="#e6edf3" font-size="22" font-weight="700" text-anchor="middle" font-family="Inter,sans-serif">5.3h</text>
      <text x="704" y="100" fill="#8b949e" font-size="9" text-anchor="middle" font-family="Inter,sans-serif">Avg First Review</text></svg>