<svg width="800" height="120" viewBox="0 0 800 120" xmlns="http://www.w3.org/2000/svg">
      <rect x="15" y="15" width="120" height="90" rx="10" fill="#161b22" stroke="#30363d" stroke-width="1"/>
      <rect x="15" y="15" width="120" height="3" rx="1.5" fill="#8b5cf6" opacity="0.6"/>
      <text x="75" y="55" fill="#e6edf3" font-size="20" font-weight="700" text-anchor="middle" font-family="Inter,sans-serif">486</text>
      <text x="75" y="80" fill="#8b949e" font-size="10" text-anchor="middle" font-family="Inter,sans-serif" text-transform="uppercase" letter-spacing="0.5">Commits</text>
      <rect x="145" y="15" width="120" height="90" rx="10" fill="#161b22" stroke="#30363d" stroke-width="1"/>
      <rect x="145" y="15" width="120" height="3" rx="1.5" fill="#06b6d4" opacity="0.6"/>
      <text x="205" y="55" fill="#e6edf3" font-size="20" font-weight="700" text-anchor="middle" font-family="Inter,sans-serif">111</text>
      <text x="205" y="80" fill="#8b949e" font-size="10" text-anchor="middle" font-family="Inter,sans-serif" text-transform="uppercase" letter-spacing="0.5">PRs Merged</text>
      <rect x="275" y="15" width="120" height="90" rx="10" fill="#161b22" stroke="#30363d" stroke-width="1"/>
      <rect x="275" y="15" width="120" height="3" rx="1.5" fill="#10b981" opacity="0.6"/>
      <text x="335" y="55" fill="#e6edf3" font-size="20" font-weight="700" text-anchor="middle" font-family="Inter,sans-serif">90</text>
      <text x="335" y="80" fill="#8b949e" font-size="10" text-anchor="middle" font-family="Inter,sans-serif" text-transform="uppercase" letter-spacing="0.5">Issues Closed</text>
      <rect x="405" y="15" width="120" height="90" rx="10" fill="#161b22" stroke="#30363d" stroke-width="1"/>
      <rect x="405" y="15" width="120" height="3" rx="1.5" fill="#f59e0b" opacity="0.6"/>
      <text x="465" y="55" fill="#e6edf3" font-size="20" font-weight="700" text-anchor="middle" font-family="Inter,sans-serif">248</text>
      <text x="465" y="80" fill="#8b949e" font-size="10" text-anchor="middle" font-family="Inter,sans-serif" text-transform="uppercase" letter-spacing="0.5">Reviews</text>
      <rect x="535" y="15" width="120" height="90" rx="10" fill="#161b22" stroke="#30363d" stroke-width="1"/>
      <rect x="535" y="15" width="120" height="3" rx="1.5" fill="#ec4899" opacity="0.6"/>
      <text x="595" y="55" fill="#e6edf3" font-size="20" font-weight="700" text-anchor="middle" font-family="Inter,sans-serif">6</text>
      <text x="595" y="80" fill="#8b949e" font-size="10" text-anchor="middle" font-family="Inter,sans-serif" text-transform="uppercase" letter-spacing="0.5">Contributors</text>
      <rect x="665" y="15" width="120" height="90" rx="10" fill="#161b22" stroke="#30363d" stroke-width="1"/>
      <rect x="665" y="15" width="120" height="3" rx="1.5" fill="#f97316" opacity="0.6"/>
      <text x="725" y="55" fill="#e6edf3" font-size="20" font-weight="700" text-anchor="middle" font-family="Inter,sans-serif">24</text>
      <text x="725" y="80" fill="#8b949e" font-size="10" text-anchor="middle" font-family="Inter,sans-serif" text-transform="uppercase" letter-spacing="0.5">Releases</text></svg>